<?xml version="1.0" standalone="no"?><!DOCTYPE svg PUBLIC "-//W3C//DTD SVG 1.1//EN" "http://www.w3.org/Graphics/SVG/1.1/DTD/svg11.dtd"><svg t="1748606598867" class="icon" viewBox="0 0 1024 1024" version="1.1" xmlns="http://www.w3.org/2000/svg" p-id="1847" xmlns:xlink="http://www.w3.org/1999/xlink" width="200" height="200"><path d="M891.259259 849.540741H132.740741c-41.718519 0-75.851852-34.133333-75.851852-75.851852V250.311111c0-41.718519 34.133333-75.851852 75.851852-75.851852h758.518518c41.718519 0 75.851852 34.133333 75.851852 75.851852v523.377778c0 41.718519-34.133333 75.851852-75.851852 75.851852z" fill="#5F7CF9" p-id="1848"></path><path d="M904.533333 849.540741H119.466667c-34.133333 0-62.577778-30.340741-62.577778-68.266667v-100.503704s117.57037-269.274074 235.140741-269.274074c134.637037 0 221.866667 202.903704 269.274074 202.903704s109.985185-134.637037 187.733333-134.637037C826.785185 479.762963 967.111111 682.666667 967.111111 682.666667v100.503703c0 36.02963-28.444444 66.37037-62.577778 66.370371z" fill="#F9D523" p-id="1849"></path></svg>